<svg width="507" height="387" viewBox="0 0 507 387" fill="none" xmlns="http://www.w3.org/2000/svg">
<g clip-path="url(#clip0_87_204)">
<path d="M270.14 115.197C269.725 115.575 269.343 115.982 268.998 116.414L216.209 114.728L210.17 104.488L191.891 110.708L200.631 129.779C201.337 131.319 202.577 132.611 204.164 133.46C205.751 134.309 207.599 134.669 209.432 134.488L269.17 128.557C270.558 130.182 272.461 131.387 274.625 132.011C276.789 132.635 279.111 132.649 281.284 132.05C283.457 131.451 285.376 130.268 286.787 128.658C288.198 127.049 289.034 125.089 289.183 123.039C289.331 120.99 288.787 118.948 287.621 117.185C286.455 115.422 284.723 114.022 282.656 113.171C280.588 112.32 278.284 112.059 276.048 112.422C273.812 112.784 271.752 113.754 270.14 115.201V115.197Z" fill="#A0616A"/>
<path d="M169.043 65.4425C186.067 65.4425 199.868 52.9631 199.868 37.5689C199.868 22.1748 186.067 9.69531 169.043 9.69531C152.019 9.69531 138.219 22.1748 138.219 37.5689C138.219 52.9631 152.019 65.4425 169.043 65.4425Z" fill="#2F2E41"/>
<path d="M144.985 22.5388C149.967 18.0345 150.976 11.6445 147.24 8.26629C143.504 4.88809 136.438 5.80096 131.457 10.3052C126.476 14.8095 125.466 21.1995 129.202 24.5777C132.938 27.9559 140.004 27.043 144.985 22.5388Z" fill="#2F2E41"/>
<path d="M201.17 13.6886C203.246 9.29515 199.677 3.70507 193.199 1.20277C186.72 -1.29953 179.786 0.233514 177.711 4.62696C175.636 9.02041 179.205 14.6105 185.683 17.1129C192.161 19.6152 199.095 18.0821 201.17 13.6886Z" fill="#2F2E41"/>
<path d="M213.892 112.828L190.237 122.393C189.564 122.665 188.834 122.803 188.096 122.797C187.359 122.791 186.632 122.642 185.964 122.359C185.297 122.076 184.705 121.666 184.228 121.157C183.751 120.649 183.402 120.053 183.202 119.411L176.227 96.9184C174.71 93.7972 174.624 90.2599 175.986 87.081C177.348 83.9022 180.048 81.3411 183.494 79.9586C186.94 78.5761 190.851 78.4849 194.372 79.7051C197.892 80.9252 200.734 83.3571 202.275 86.4683L216.123 106.099C216.52 106.662 216.777 107.294 216.879 107.955C216.98 108.615 216.923 109.287 216.711 109.926C216.5 110.565 216.138 111.154 215.651 111.655C215.165 112.156 214.565 112.556 213.891 112.828H213.892Z" fill="#CCCCCC"/>
<path d="M104.648 206.941C106.277 206.599 107.804 205.938 109.12 205.005C110.437 204.071 111.511 202.888 112.267 201.539C113.023 200.189 113.442 198.707 113.496 197.195C113.55 195.683 113.236 194.179 112.577 192.788L154.759 106.613L130.629 101.117L96.7535 187.553C94.2437 188.708 92.2898 190.656 91.2621 193.027C90.2343 195.398 90.2042 198.028 91.1773 200.418C92.1504 202.808 94.0592 204.792 96.5419 205.994C99.0246 207.196 101.909 207.533 104.648 206.941Z" fill="#A0616A"/>
<path d="M93.1484 363.141L105.419 367.18L128.49 326.306L110.38 320.344L93.1484 363.141Z" fill="#A0616A"/>
<path d="M124.938 385.273L86.374 372.577L91.7989 359.104L115.463 366.895C119.415 368.196 122.633 370.863 124.41 374.31C126.186 377.756 126.376 381.7 124.938 385.273L124.938 385.273Z" fill="#2F2E41"/>
<path d="M122.171 339.618C121.418 339.619 120.674 339.468 119.994 339.176L105.892 333.136C104.736 332.646 103.825 331.782 103.339 330.714C102.852 329.646 102.825 328.452 103.263 327.368L143.06 227.712C143.39 226.887 143.972 226.163 144.738 225.624C145.504 225.086 146.424 224.755 147.389 224.67C148.355 224.585 149.328 224.75 150.194 225.145C151.061 225.54 151.786 226.149 152.285 226.901L173.334 258.625C173.803 259.332 174.055 260.138 174.065 260.962C174.074 261.786 173.841 262.598 173.39 263.314L126.645 337.286C126.192 337.996 125.539 338.585 124.754 338.995C123.969 339.405 123.078 339.62 122.171 339.618Z" fill="#2F2E41"/>
<path d="M170.02 67.8785C184.468 67.8785 196.181 57.2873 196.181 44.2224C196.181 31.1576 184.468 20.5664 170.02 20.5664C155.572 20.5664 143.859 31.1576 143.859 44.2224C143.859 57.2873 155.572 67.8785 170.02 67.8785Z" fill="#A0616A"/>
<path d="M207.033 151.777L160.713 140.258L136.077 95.7041C134.893 93.5636 134.334 91.1852 134.453 88.7945C134.572 86.4039 135.365 84.0804 136.756 82.0448C138.148 80.0091 140.091 78.3289 142.403 77.1636C144.714 75.9983 147.317 75.3867 149.963 75.3867H186.816C190.641 75.3845 194.332 76.6611 197.18 78.9709C207.066 86.9791 227.835 110.066 207.233 151.374L207.033 151.777Z" fill="#CCCCCC"/>
<path d="M149.049 122.023L125.58 112.09C124.913 111.807 124.32 111.398 123.843 110.889C123.366 110.381 123.016 109.786 122.817 109.144C122.617 108.502 122.573 107.829 122.687 107.17C122.801 106.511 123.071 105.883 123.478 105.327L137.74 85.8494C139.36 82.7703 142.264 80.3974 145.815 79.2506C149.366 78.1038 153.275 78.2766 156.685 79.7312C160.096 81.1858 162.729 83.8035 164.009 87.0108C165.289 90.2181 165.111 93.7534 163.514 96.8422L156.139 119.152C155.928 119.79 155.567 120.38 155.08 120.881C154.594 121.383 153.994 121.783 153.321 122.056C152.648 122.328 151.918 122.466 151.181 122.461C150.444 122.455 149.717 122.306 149.049 122.023H149.049Z" fill="#CCCCCC"/>
<path d="M177.44 374.311H190.498L196.711 328.766L177.438 328.767L177.44 374.311Z" fill="#A0616A"/>
<path d="M215.68 385.273L174.64 385.275L174.639 370.937L199.823 370.936C204.028 370.936 208.061 372.446 211.035 375.135C214.009 377.824 215.679 381.471 215.68 385.273Z" fill="#2F2E41"/>
<path d="M182.37 356.954C181.196 356.956 180.057 356.591 179.146 355.922C178.235 355.253 177.606 354.32 177.367 353.28C173.613 337.288 154.119 255.375 138.904 213.181C123.423 170.253 149.788 150.7 155.23 147.216C155.809 146.846 156.27 146.343 156.564 145.759L160.518 137.894C160.928 137.082 161.588 136.394 162.418 135.911C163.248 135.429 164.215 135.172 165.202 135.172H165.234C194.875 135.332 204.839 143.781 207.748 147.407C208.177 147.947 208.471 148.565 208.609 149.217C208.748 149.87 208.728 150.543 208.55 151.188L189.796 221.156C189.68 221.59 189.653 222.04 189.718 222.482L208.377 349.522C208.467 350.133 208.421 350.753 208.243 351.348C208.065 351.942 207.757 352.499 207.338 352.985C206.92 353.471 206.398 353.876 205.805 354.178C205.211 354.48 204.556 354.672 203.88 354.742L182.973 356.923C182.773 356.944 182.572 356.954 182.37 356.954Z" fill="#2F2E41"/>
<path d="M142.531 29.3435C148.509 33.0693 155.605 35.0522 162.865 35.026C160.275 36.6498 157.327 37.7466 154.223 38.2409C163.876 40.1134 173.853 40.1641 183.529 38.3899C185.68 38.078 187.755 37.4335 189.664 36.4845C190.615 36.0041 191.444 35.3482 192.096 34.5592C192.749 33.7702 193.21 32.8658 193.451 31.905C194.094 28.5835 191.232 25.5659 188.257 23.5323C183.703 20.466 178.452 18.3534 172.885 17.3474C167.317 16.3413 161.572 16.4669 156.064 17.7151C152.468 18.5557 148.866 19.9759 146.53 22.5874C144.194 25.1989 143.502 29.2249 145.728 31.9141L142.531 29.3435Z" fill="#2F2E41"/>
<path d="M449.609 295.801V386.079L423.712 385.402H291.219V311.753L329.879 295.801H449.609Z" fill="#CCCCCC"/>
<path opacity="0.1" d="M449.609 295.801V296.082L440.312 301.709L423.712 311.753H291.219L329.879 295.801H449.609Z" fill="black"/>
<path opacity="0.1" d="M449.608 295.801V386.079L423.711 385.402L423.898 311.582L440.311 301.709L449.458 295.801H449.608Z" fill="black"/>
<path d="M414.704 305.472H334.008L340.013 302.418H417.332L414.704 305.472Z" fill="white"/>
<path d="M505.935 387.001H1.06513C0.782637 387.001 0.511734 386.899 0.311984 386.718C0.112234 386.538 0 386.293 0 386.037C0 385.782 0.112234 385.537 0.311984 385.356C0.511734 385.176 0.782637 385.074 1.06513 385.074H505.935C506.217 385.074 506.488 385.176 506.688 385.356C506.888 385.537 507 385.782 507 386.037C507 386.293 506.888 386.538 506.688 386.718C506.488 386.899 506.217 387.001 505.935 387.001Z" fill="#E6E6E6"/>
<path d="M371.794 131.596H284.453C281.912 131.594 279.475 130.68 277.678 129.055C275.881 127.43 274.87 125.226 274.867 122.928V37.2074C274.87 34.9093 275.881 32.7059 277.678 31.0809C279.475 29.4558 281.912 28.5417 284.453 28.5391H371.794C374.335 28.5417 376.772 29.4558 378.569 31.0809C380.366 32.7059 381.377 34.9093 381.38 37.2074V122.928C381.377 125.226 380.366 127.43 378.569 129.055C376.772 130.68 374.335 131.594 371.794 131.596ZM284.453 30.4654C282.477 30.4674 280.581 31.1783 279.184 32.4423C277.786 33.7062 277 35.42 276.997 37.2074V122.928C277 124.716 277.786 126.429 279.184 127.693C280.581 128.957 282.477 129.668 284.453 129.67H371.794C373.77 129.668 375.666 128.957 377.063 127.693C378.461 126.429 379.247 124.716 379.25 122.928V37.2074C379.247 35.42 378.461 33.7062 377.063 32.4423C375.666 31.1783 373.77 30.4674 371.794 30.4654H284.453Z" fill="#3F3D56"/>
<path d="M302.041 64.1744H293.52C292.249 64.1731 291.031 63.7161 290.132 62.9035C289.233 62.091 288.728 60.9893 288.727 59.8402V52.135C288.728 50.9859 289.233 49.8842 290.132 49.0716C291.031 48.2591 292.249 47.8021 293.52 47.8008H302.041C303.311 47.8021 304.53 48.2591 305.428 49.0716C306.327 49.8842 306.832 50.9859 306.834 52.135V59.8402C306.832 60.9893 306.327 62.091 305.428 62.9035C304.53 63.7161 303.311 64.1731 302.041 64.1744Z" fill="#6C63FF"/>
<path d="M302.041 88.2564H293.52C292.249 88.2551 291.031 87.7981 290.132 86.9856C289.233 86.173 288.728 85.0713 288.727 83.9222V76.217C288.728 75.0679 289.233 73.9662 290.132 73.1537C291.031 72.3411 292.249 71.8841 293.52 71.8828H302.041C303.311 71.8841 304.53 72.3411 305.428 73.1537C306.327 73.9662 306.832 75.0679 306.834 76.217V83.9222C306.832 85.0713 306.327 86.173 305.428 86.9856C304.53 87.7981 303.311 88.2551 302.041 88.2564Z" fill="#CCCCCC"/>
<path d="M364.321 59.4942H324.539C323.692 59.4934 322.88 59.1887 322.281 58.647C321.682 58.1053 321.345 57.3708 321.344 56.6047V55.3777C321.345 54.6117 321.682 53.8772 322.281 53.3355C322.88 52.7938 323.692 52.4891 324.539 52.4883H364.321C365.168 52.4891 365.98 52.7938 366.579 53.3355C367.178 53.8772 367.515 54.6117 367.516 55.3777V56.6047C367.515 57.3708 367.178 58.1053 366.579 58.647C365.98 59.1887 365.168 59.4934 364.321 59.4942Z" fill="#6C63FF"/>
<path d="M364.321 83.5723H324.539C323.692 83.5715 322.88 83.2668 322.281 82.7251C321.682 82.1834 321.345 81.4489 321.344 80.6829V79.4559C321.345 78.6898 321.682 77.9553 322.281 77.4136C322.88 76.8719 323.692 76.5672 324.539 76.5664H364.321C365.168 76.5672 365.98 76.8719 366.579 77.4136C367.178 77.9553 367.515 78.6898 367.516 79.4559V80.6829C367.515 81.4489 367.178 82.1834 366.579 82.7251C365.98 83.2668 365.168 83.5715 364.321 83.5723Z" fill="#CCCCCC"/>
<path d="M302.041 112.335H293.52C292.249 112.333 291.031 111.876 290.132 111.064C289.233 110.251 288.728 109.149 288.727 108V100.295C288.728 99.146 289.233 98.0443 290.132 97.2318C291.031 96.4192 292.249 95.9622 293.52 95.9609H302.041C303.311 95.9622 304.53 96.4192 305.428 97.2318C306.327 98.0443 306.832 99.146 306.834 100.295V108C306.832 109.149 306.327 110.251 305.428 111.064C304.53 111.876 303.311 112.333 302.041 112.335Z" fill="#CCCCCC"/>
<path d="M364.321 107.65H324.539C323.692 107.65 322.88 107.345 322.281 106.803C321.682 106.262 321.345 105.527 321.344 104.761V103.534C321.345 102.768 321.682 102.033 322.281 101.492C322.88 100.95 323.692 100.645 324.539 100.645H364.321C365.168 100.645 365.98 100.95 366.579 101.492C367.178 102.033 367.515 102.768 367.516 103.534V104.761C367.515 105.527 367.178 106.262 366.579 106.803C365.98 107.345 365.168 107.65 364.321 107.65Z" fill="#CCCCCC"/>
</g>
<defs>
<clipPath id="clip0_87_204">
<rect width="507" height="387" fill="white"/>
</clipPath>
</defs>
</svg>
