<svg width="714" height="491" viewBox="0 0 714 491" fill="none" xmlns="http://www.w3.org/2000/svg">
<g clip-path="url(#clip0_149_166)">
<path d="M488.097 93.8609C484.079 89.4864 479.237 85.978 473.858 83.5444C468.479 81.1108 462.675 79.8016 456.788 79.6946C450.902 79.5877 445.055 80.6851 439.595 82.9217C434.134 85.1584 429.171 88.4885 425.002 92.7142L202.815 318.63C196.945 324.585 188.995 327.935 180.703 327.948C172.411 327.96 164.451 324.635 158.563 318.698L125.657 285.306C121.588 281.168 116.758 277.885 111.442 275.645C106.125 273.406 100.427 272.253 94.6725 272.253C88.9179 272.253 83.2197 273.406 77.9033 275.645C72.587 277.885 67.7567 281.168 63.6884 285.306L0 350.133H714V340.891L488.097 93.8609Z" fill="#F0F0F0"/>
<path d="M227.887 470.516C190.341 458.499 153.422 458.498 118.155 470.512L117.742 469.26C153.274 457.154 190.464 457.153 228.277 469.256L227.887 470.516Z" fill="#E4E4E4"/>
<path d="M619.606 440.789C582.06 428.772 545.14 428.771 509.874 440.786L509.461 439.533C544.993 427.428 582.182 427.426 619.996 439.529L619.606 440.789Z" fill="#E4E4E4"/>
<path d="M643.336 171.131C671.307 97.3478 655.839 22.5852 608.786 4.14402C561.733 -14.2972 500.914 30.5663 472.943 104.349C444.972 178.132 460.441 252.895 507.493 271.336C554.546 289.777 615.365 244.914 643.336 171.131Z" fill="#CC6200"/>
<path d="M503.667 377.361C503.374 377.36 503.091 377.253 502.87 377.057C502.649 376.862 502.504 376.592 502.463 376.297C502.411 375.928 497.345 338.777 501.895 289.402C506.097 243.804 519.591 178.125 560.014 124.185C560.111 124.055 560.232 123.946 560.37 123.864C560.508 123.782 560.661 123.729 560.82 123.707C560.978 123.685 561.14 123.695 561.294 123.736C561.449 123.778 561.594 123.85 561.722 123.949C561.849 124.047 561.956 124.17 562.037 124.311C562.117 124.452 562.169 124.607 562.191 124.769C562.212 124.93 562.202 125.094 562.16 125.251C562.119 125.409 562.048 125.556 561.951 125.686C521.877 179.16 508.492 244.357 504.319 289.633C499.796 338.721 504.822 375.582 504.873 375.948C504.898 376.124 504.885 376.303 504.836 376.473C504.786 376.643 504.701 376.8 504.587 376.934C504.472 377.068 504.331 377.176 504.172 377.249C504.014 377.323 503.841 377.361 503.667 377.361V377.361Z" fill="#3F3D56"/>
<path d="M523.875 195.513C523.618 195.513 523.367 195.431 523.159 195.277C522.951 195.124 522.796 194.907 522.716 194.658C522.636 194.41 522.636 194.142 522.716 193.893C522.795 193.644 522.95 193.428 523.158 193.274C523.305 193.165 538.093 182.332 560.2 174.101C580.637 166.493 611.714 159.597 643.708 169.95C644.016 170.049 644.272 170.269 644.42 170.561C644.568 170.852 644.597 171.192 644.499 171.505C644.401 171.817 644.185 172.078 643.898 172.229C643.611 172.379 643.277 172.408 642.97 172.309C611.632 162.168 581.118 168.951 561.037 176.426C539.245 184.539 524.733 195.17 524.589 195.277C524.382 195.43 524.132 195.513 523.875 195.513Z" fill="#3F3D56"/>
<path d="M206.763 305.012C253.815 286.571 269.284 211.808 241.313 138.025C213.341 64.2424 152.523 19.379 105.47 37.8202C58.4172 56.2614 42.9486 131.024 70.9198 204.807C98.891 278.59 159.71 323.453 206.763 305.012Z" fill="#CC6200"/>
<path d="M210.589 411.04C210.882 411.04 211.165 410.932 211.386 410.737C211.607 410.542 211.752 410.272 211.793 409.977C211.845 409.608 216.911 372.457 212.361 323.082C208.159 277.483 194.665 211.805 154.242 157.865C154.145 157.735 154.024 157.626 153.886 157.544C153.748 157.462 153.595 157.408 153.436 157.386C153.278 157.364 153.116 157.374 152.962 157.416C152.807 157.457 152.662 157.53 152.534 157.628C152.407 157.727 152.3 157.85 152.22 157.991C152.139 158.132 152.087 158.287 152.065 158.448C152.044 158.61 152.054 158.774 152.096 158.931C152.137 159.088 152.208 159.236 152.305 159.365C192.379 212.84 205.764 278.036 209.937 323.313C214.46 372.4 209.434 409.261 209.383 409.628C209.358 409.804 209.371 409.983 209.421 410.153C209.47 410.323 209.555 410.48 209.669 410.614C209.784 410.748 209.925 410.855 210.084 410.929C210.242 411.002 210.415 411.04 210.589 411.04Z" fill="#3F3D56"/>
<path d="M190.379 229.193C190.636 229.193 190.887 229.11 191.095 228.957C191.303 228.803 191.458 228.587 191.538 228.338C191.618 228.089 191.618 227.821 191.538 227.573C191.459 227.324 191.304 227.107 191.096 226.954C190.949 226.845 176.161 216.011 154.054 207.781C133.617 200.173 102.54 193.276 70.546 203.63C70.3933 203.679 70.2517 203.758 70.1292 203.862C70.0067 203.967 69.9057 204.096 69.832 204.24C69.7583 204.385 69.7133 204.542 69.6997 204.705C69.6861 204.867 69.7041 205.03 69.7526 205.185C69.8012 205.34 69.8793 205.484 69.9826 205.608C70.0859 205.733 70.2123 205.835 70.3546 205.91C70.4969 205.984 70.6522 206.03 70.8118 206.043C70.9713 206.057 71.1319 206.038 71.2843 205.988C102.622 195.848 133.136 202.631 153.217 210.106C175.009 218.219 189.521 228.85 189.665 228.956C189.872 229.11 190.122 229.193 190.379 229.193Z" fill="#3F3D56"/>
<path d="M147.291 463.648C147.229 463.458 141.175 444.414 151.888 427.422L152.982 428.135C142.612 444.584 148.463 463.046 148.524 463.231L147.291 463.648Z" fill="#E4E4E4"/>
<path d="M159.116 430.35C158.813 431.445 158.3 432.468 157.608 433.362C156.916 434.255 156.057 435.001 155.081 435.557C154.105 436.113 153.031 436.468 151.92 436.602C150.809 436.736 149.683 436.646 148.607 436.338C146.432 435.715 144.59 434.239 143.485 432.235C142.939 431.242 142.589 430.15 142.458 429.021C142.326 427.891 142.414 426.746 142.718 425.652C143.994 421.047 151.721 409.625 156.249 410.922C160.777 412.22 160.392 425.746 159.116 430.35Z" fill="#E4E4E4"/>
<path d="M157.994 451.752C153.885 456.267 146.536 456.144 146.536 456.144C146.536 456.144 145.847 448.703 149.955 444.189C154.064 439.675 161.413 439.797 161.413 439.797C161.413 439.797 162.102 447.238 157.994 451.752Z" fill="#E4E4E4"/>
<path d="M575.392 431.281C575.33 431.09 569.277 412.047 579.99 395.055L581.084 395.767C570.714 412.217 576.565 430.679 576.625 430.863L575.392 431.281Z" fill="#E4E4E4"/>
<path d="M587.644 397.5C587.414 398.613 586.97 399.67 586.338 400.609C585.707 401.549 584.899 402.352 583.961 402.974C583.024 403.595 581.975 404.023 580.875 404.232C579.775 404.442 578.645 404.429 577.55 404.194C576.455 403.959 575.416 403.507 574.493 402.864C573.569 402.221 572.78 401.399 572.169 400.445C571.558 399.491 571.138 398.425 570.933 397.306C570.728 396.187 570.742 395.038 570.974 393.925C571.945 389.244 580.175 377.595 584.779 378.582C589.382 379.57 588.615 392.819 587.644 397.5Z" fill="#E4E4E4"/>
<path d="M586.095 419.393C581.987 423.907 574.637 423.785 574.637 423.785C574.637 423.785 573.948 416.343 578.057 411.829C582.165 407.315 589.515 407.438 589.515 407.438C589.515 407.438 590.204 414.879 586.095 419.393Z" fill="#E4E4E4"/>
<path d="M211.844 409.939C211.844 409.939 293.047 234.24 383.344 261.322C473.642 288.403 411.278 429.094 411.278 429.094L211.844 409.939Z" fill="#CACACA"/>
<path d="M210.406 414.291L221.45 399.099L333.185 362.109L521.062 380.872L521.53 388.2L461.81 451.28L210.406 414.291Z" fill="#3F3D56"/>
<path d="M329.415 461.175H335.324L338.135 438H329.414L329.415 461.175Z" fill="#A0616A"/>
<path d="M327.906 459.211L339.544 459.211H339.544C341.511 459.211 343.397 460.006 344.788 461.42C346.179 462.834 346.96 464.752 346.96 466.751V466.997L327.907 466.997L327.906 459.211Z" fill="#2F2E41"/>
<path d="M306.543 448.87L301.756 452.392L286.117 435.292L293.182 430.094L306.543 448.87Z" fill="#A0616A"/>
<path d="M311.119 452.691L295.682 464.047L295.541 463.849C294.388 462.229 293.915 460.209 294.226 458.234C294.538 456.26 295.608 454.492 297.201 453.319L297.202 453.319L306.63 446.383L311.119 452.691Z" fill="#2F2E41"/>
<path d="M313.012 358.778C313.012 358.778 306.812 354.057 300.108 358.778L295.469 398.126H309.4L311.464 385.535L316.108 366.648L313.012 358.778Z" fill="#2F2E41"/>
<path d="M326.968 419.551L301.965 411.249L290.045 420.867L302.708 440.55L296.085 449.381L295.896 449.162C295.074 448.211 275.772 425.783 275.828 419.422C275.971 415.106 276.689 410.83 277.96 406.71L284.23 397.661L293.129 395L322.59 399.204L322.638 399.211L334.541 406.578C335.719 407.347 336.712 408.376 337.446 409.588C338.181 410.799 338.639 412.163 338.786 413.579C339.297 418.257 340.325 455.717 340.335 456.095L340.342 456.34H327.485L326.968 419.551Z" fill="#2F2E41"/>
<path d="M311.108 410.155C306.762 408.191 301.212 400.523 300.297 399.23C298.509 400.22 285.469 407.306 281.793 405.484C281.259 405.784 278.845 407.248 278.411 409.458L278.302 410.012L277.987 409.547C277.929 409.461 272.265 400.898 279.592 395.576C286.272 390.725 288.07 385.823 288.258 385.262L284.633 365.782L284.728 365.692C285.025 365.411 292.082 358.81 298.521 358.024L302.493 357.312L302.666 372.687V392.369C305.876 391.959 310.953 357.568 310.953 357.568L313.606 358.557C314.291 358.691 321.995 360.255 324.04 363.373L324.106 363.475L317.099 382.738L315.05 385.875V389.891L327.022 400.477L326.852 400.658C326.444 401.092 317.616 410.429 312.473 410.427C312.004 410.435 311.539 410.342 311.108 410.155Z" fill="#2F2E41"/>
<path d="M306.543 353.38C312.918 353.38 318.086 348.125 318.086 341.643C318.086 335.161 312.918 329.906 306.543 329.906C300.168 329.906 295 335.161 295 341.643C295 348.125 300.168 353.38 306.543 353.38Z" fill="#A0616A"/>
<path d="M303.641 413.65C303.724 412.984 303.949 412.344 304.301 411.775C304.654 411.207 305.124 410.724 305.68 410.36C306.236 409.997 306.863 409.762 307.518 409.671C308.172 409.581 308.839 409.638 309.47 409.838L316.086 401.773L321.886 404.666L312.385 415.921C311.985 416.976 311.218 417.845 310.229 418.364C309.241 418.883 308.099 419.014 307.021 418.735C305.943 418.455 305.004 417.782 304.381 416.845C303.758 415.908 303.495 414.771 303.641 413.65V413.65Z" fill="#A0616A"/>
<path d="M308.312 406.809L318.692 392.561L316.121 378.446L320.292 362.542L320.397 362.496C320.481 362.46 322.477 361.604 323.997 362.245C324.308 362.376 324.588 362.57 324.822 362.817C325.055 363.063 325.235 363.356 325.351 363.677C326.384 366.302 328.874 393.035 328.979 394.218C328.958 394.434 328.447 399.532 327.407 401.646C326.373 403.75 316.937 414.364 316.536 414.815L316.37 415.002L308.312 406.809Z" fill="#2F2E41"/>
<path d="M316.457 338.625C312.615 343.538 306.03 342.638 300.761 340.84C301.067 344.773 300.017 348.692 297.79 351.924C298.47 349.137 295.604 348.582 293.931 347.546C293.287 346.717 293.822 345.48 293.558 344.458C290.554 340.878 288.564 338.177 292.419 333.975C294.676 330.903 297.385 327.068 301.685 327.875C305.087 323.839 310.663 324.889 314.468 327.712C316.178 328.999 317.734 330.485 319.103 332.141C318.665 334.32 317.85 336.402 316.695 338.291" fill="#2F2E41"/>
<path d="M358.655 421.826L458.885 437.08L520.6 380.936C520.6 380.936 491.367 258.74 386.128 250.153C280.889 241.566 204.883 414.623 204.883 414.623L215.904 415.102C215.904 415.102 273.093 280.537 351.048 276.574C429.003 272.611 358.655 421.826 358.655 421.826Z" fill="#E4E4E4"/>
<path d="M378.466 296.656H312.205C308.586 296.656 305.117 295.195 302.558 292.593C300 289.992 298.562 286.464 298.562 282.785C298.562 279.106 300 275.578 302.558 272.977C305.117 270.375 308.586 268.914 312.205 268.914H378.466C382.084 268.914 385.554 270.375 388.113 272.977C390.671 275.578 392.108 279.106 392.108 282.785C392.108 286.464 390.671 289.992 388.113 292.593C385.554 295.195 382.084 296.656 378.466 296.656Z" fill="#CACACA"/>
<path d="M441.707 380.222C441.148 379.88 440.669 379.418 440.305 378.868C439.94 378.317 439.699 377.693 439.597 377.037C439.496 376.382 439.537 375.712 439.718 375.074C439.899 374.437 440.215 373.847 440.644 373.347L434.844 314.164L444.529 314.818L447.213 373.095C447.991 373.884 448.457 374.935 448.524 376.05C448.59 377.165 448.252 378.267 447.573 379.145C446.895 380.024 445.923 380.618 444.842 380.817C443.76 381.015 442.645 380.804 441.707 380.222Z" fill="#FFB8B8"/>
<path d="M448.455 311.969L445.916 331.592L446.269 343.619L435.616 344.611L433.481 334.608L432.305 308.126C432.216 306.129 432.875 304.172 434.149 302.649C435.424 301.126 437.218 300.151 439.172 299.92C441.198 299.681 443.236 300.261 444.845 301.535C446.455 302.81 447.507 304.677 447.774 306.734L448.455 311.969Z" fill="#2F2E41"/>
<path d="M407.661 484.633L401.199 484.632L398.125 459.289L407.662 459.29L407.661 484.633Z" fill="#FFB7B7"/>
<path d="M409.305 490.999L388.469 490.998V490.73C388.469 488.543 389.323 486.446 390.844 484.9C392.365 483.353 394.428 482.484 396.579 482.484H396.579L409.305 482.485L409.305 490.999Z" fill="#2F2E41"/>
<path d="M461.02 484.633L454.558 484.632L451.484 459.289L461.022 459.29L461.02 484.633Z" fill="#FFB7B7"/>
<path d="M462.664 490.999L441.828 490.998V490.73C441.828 488.543 442.683 486.446 444.204 484.9C445.724 483.353 447.787 482.484 449.938 482.484H449.939L462.664 482.485L462.664 490.999Z" fill="#2F2E41"/>
<path d="M435.893 290.592C443.63 290.592 449.903 284.214 449.903 276.347C449.903 268.479 443.63 262.102 435.893 262.102C428.155 262.102 421.883 268.479 421.883 276.347C421.883 284.214 428.155 290.592 435.893 290.592Z" fill="#FFB8B8"/>
<path d="M434.077 296.375L443.8 297.505C446.164 300.914 447.697 304.846 448.272 308.976C448.848 313.107 448.449 317.317 447.108 321.259L439.772 342.838C439.772 342.838 449.956 363.596 449.956 382.869C449.956 402.143 469.351 470.938 469.351 470.938L442.051 473.833L430.139 400.547L413.724 473.538L394.984 470.436L405.306 374.737L412.126 343.238L412.416 327.877C412.416 327.877 409.516 316.351 416.774 308.971L425.636 296.416L434.077 296.375Z" fill="#2F2E41"/>
<path d="M419.555 271.258H440.142V262.133C435.623 260.308 431.202 258.756 428.529 262.133C426.149 262.133 423.866 263.095 422.183 264.806C420.5 266.517 419.555 268.838 419.555 271.258Z" fill="#2F2E41"/>
<path d="M441.283 260.523C453.591 260.523 457.036 276.209 457.036 285.058C457.036 289.993 454.841 291.758 451.391 292.356L450.173 285.75L447.32 292.64C446.351 292.645 445.333 292.626 444.278 292.606L443.311 290.58L441.154 292.569C432.514 292.582 425.531 293.863 425.531 285.058C425.531 276.209 428.552 260.523 441.283 260.523Z" fill="#2F2E41"/>
<path opacity="0.2" d="M423.087 347.162L422.566 324.185L421.186 313.984L417.773 324.089L423.087 347.162Z" fill="black"/>
<path d="M462.788 363.098L440.508 361.161L439.57 296.82L450.433 297.529C451.121 297.577 451.786 297.802 452.364 298.183C452.943 298.564 453.417 299.089 453.74 299.708L467.994 327.203L467.161 359.123C467.133 360.189 466.698 361.202 465.947 361.947C465.197 362.692 464.19 363.11 463.142 363.113C463.025 363.113 462.907 363.108 462.788 363.098Z" fill="#CC6200"/>
<path d="M412.719 320.132C412.719 305.887 421.248 294.297 431.731 294.297C442.215 294.297 450.744 305.887 450.744 320.132C450.744 334.378 442.215 345.968 431.731 345.968C421.248 345.968 412.719 334.378 412.719 320.132ZM415.206 320.132C415.206 332.983 422.619 343.438 431.731 343.438C440.843 343.438 448.256 332.983 448.256 320.132C448.256 307.281 440.843 296.826 431.731 296.826C422.619 296.826 415.206 307.281 415.206 320.132Z" fill="#CC6200"/>
<path d="M462.114 359.712L463.578 327.228L448.571 297.398L447.938 297.727L462.86 327.386L461.404 359.679L462.114 359.712Z" fill="#3F3D56"/>
<path d="M425.592 382.608C425 382.2 424.503 381.666 424.137 381.041C423.77 380.417 423.542 379.719 423.47 378.996C423.397 378.273 423.482 377.542 423.717 376.856C423.952 376.169 424.332 375.543 424.831 375.022L421.945 309.922L432.504 311.222L432.032 375.144C432.837 376.053 433.286 377.232 433.293 378.456C433.301 379.68 432.867 380.864 432.073 381.784C431.279 382.704 430.181 383.296 428.986 383.448C427.792 383.6 426.584 383.301 425.592 382.608Z" fill="#FFB8B8"/>
<path d="M436.964 308.354L433.039 329.669L432.721 342.848L421.009 343.289L419.258 332.217L419.519 303.173C419.539 300.983 420.375 298.881 421.858 297.292C423.341 295.703 425.361 294.745 427.512 294.61C429.743 294.471 431.938 295.228 433.625 296.72C435.311 298.212 436.353 300.318 436.525 302.584L436.964 308.354Z" fill="#2F2E41"/>
<path d="M266.93 405.383C266.26 405.381 265.616 405.113 265.137 404.637C264.657 404.161 264.379 403.513 264.361 402.832L263.828 382.425L272.941 364.846C273.148 364.451 273.451 364.115 273.821 363.871C274.191 363.627 274.616 363.484 275.055 363.453L282 363L281.4 404.135L267.156 405.373C267.08 405.38 267.005 405.383 266.93 405.383Z" fill="#CC6200"/>
<path d="M287.015 394.425C280.312 394.425 274.859 387.016 274.859 377.908C274.859 368.8 280.312 361.391 287.015 361.391C293.717 361.391 299.17 368.8 299.17 377.908C299.17 387.016 293.717 394.425 287.015 394.425ZM287.015 363.008C281.189 363.008 276.45 369.692 276.45 377.908C276.45 386.124 281.189 392.808 287.015 392.808C292.84 392.808 297.579 386.124 297.579 377.908C297.579 369.692 292.84 363.008 287.015 363.008Z" fill="#CC6200"/>
<path d="M267.585 403.214L266.648 382.446L276.243 363.375L276.648 363.586L267.108 382.547L268.039 403.193L267.585 403.214Z" fill="#3F3D56"/>
<path d="M315.805 419.127C315.731 419.156 315.653 419.177 315.574 419.188L305.849 420.568C305.614 420.602 305.374 420.554 305.169 420.431C304.964 420.309 304.807 420.119 304.722 419.893L296.351 397.745C296.297 397.602 296.274 397.448 296.283 397.295C296.293 397.142 296.335 396.992 296.406 396.857C296.477 396.722 296.577 396.604 296.697 396.511C296.817 396.418 296.956 396.352 297.103 396.319H297.103L306.249 394.244C306.319 394.228 306.388 394.202 306.452 394.168L315.347 389.44C315.416 389.403 315.488 389.374 315.563 389.354L325.353 386.701C325.603 386.632 325.87 386.661 326.101 386.781C326.333 386.9 326.512 387.103 326.605 387.35L333.904 406.661C333.968 406.829 333.989 407.011 333.965 407.19C333.94 407.369 333.872 407.538 333.765 407.683L331.241 411.129C331.122 411.292 330.961 411.416 330.775 411.489L325.259 413.644C325.219 413.66 325.181 413.678 325.144 413.7L315.951 419.057C315.905 419.084 315.856 419.107 315.805 419.127Z" fill="white"/>
<path d="M320.324 389.656L319.081 389.993L315.786 390.886L315.781 390.887L311.27 393.285L309.597 394.175L309.596 394.176L307.082 395.512L307.013 395.528L304.402 396.12L303.14 396.407L297.992 397.575L306.073 418.955L311.378 418.202L312.678 418.017L315.451 417.623L315.483 417.619L324.391 412.428L329.811 410.31L332.285 406.932L325.251 388.32L320.324 389.656Z" fill="#E4E4E4"/>
<path d="M326.416 391.388L299.617 401.859L300.076 403.074L326.875 392.602L326.416 391.388Z" fill="white"/>
<path d="M327.939 395.435L301.141 405.906L301.6 407.12L328.398 396.649L327.939 395.435Z" fill="white"/>
<path d="M331.033 403.606L304.234 414.078L304.693 415.292L331.492 404.821L331.033 403.606Z" fill="white"/>
<path d="M320.329 389.656L328.352 410.883L327.158 411.349L319.086 389.993L320.329 389.656Z" fill="white"/>
<path d="M311.277 393.281L309.629 397.942L309.058 399.558L307.726 403.331L307.44 404.137L307.154 404.947L306.778 406.011L304.077 413.654L303.375 411.796L305.577 405.564L306.075 404.153L306.148 403.947L306.737 402.279L307.481 400.175L308.052 398.558L309.602 394.172L309.603 394.171L311.277 393.281Z" fill="white"/>
<path d="M304.403 396.117L312.679 418.015L311.378 418.2L303.141 396.404L304.403 396.117Z" fill="white"/>
<path d="M307.635 417.08C307.553 416.413 307.327 415.773 306.975 415.205C306.623 414.636 306.152 414.153 305.597 413.79C305.041 413.426 304.414 413.191 303.759 413.101C303.104 413.011 302.438 413.067 301.807 413.267L295.191 405.203L289.391 408.096L298.891 419.351C299.291 420.406 300.059 421.275 301.047 421.794C302.036 422.312 303.177 422.444 304.255 422.164C305.333 421.884 306.272 421.212 306.895 420.275C307.518 419.338 307.782 418.201 307.635 417.08V417.08Z" fill="#A0616A"/>
<path d="M294.811 415.631C294.22 415.18 280.302 404.544 278.747 401.382C277.19 398.215 277.576 388.837 277.596 388.41C277.62 388.263 280.043 373.607 282.093 368.397C284.219 362.991 289.568 365.094 289.622 365.116L289.784 365.182L287.455 392.81L300.159 409.946L294.983 415.762L294.811 415.631Z" fill="#2F2E41"/>
</g>
<defs>
<clipPath id="clip0_149_166">
<rect width="714" height="491" fill="white"/>
</clipPath>
</defs>
</svg>
