<svg width="550" height="426" viewBox="0 0 550 426" fill="none" xmlns="http://www.w3.org/2000/svg">
<g clip-path="url(#clip0_96_169)">
<path d="M161.211 401.445C163.31 403.341 165.887 404.691 168.694 405.365C171.502 406.039 174.444 406.014 177.238 405.293C184.399 403.36 189.259 397.217 193.573 391.449L206.337 374.391L195.58 376.266C187.844 377.614 179.917 379.03 173.18 382.889C166.443 386.748 161.047 393.637 161.474 401.103" fill="#E6E6E6"/>
<path d="M151.215 424.424C153.101 418.308 154.999 412.109 158.329 406.536C161.288 401.586 165.329 397.243 170.662 394.543C173.49 393.113 176.559 392.164 179.731 391.738C180.558 391.627 180.693 392.85 179.869 392.962C174.378 393.708 169.278 396.092 165.305 399.771C160.9 403.869 158.01 409.152 155.874 414.589C154.581 417.877 153.537 421.245 152.499 424.612C152.468 424.771 152.374 424.913 152.237 425.009C152.099 425.105 151.929 425.147 151.76 425.127C151.59 425.101 151.438 425.013 151.337 424.882C151.236 424.75 151.193 424.586 151.218 424.425L151.215 424.424Z" fill="#F2F2F2"/>
<path d="M358.93 178.119C360.156 177.838 361.432 177.816 362.668 178.055C363.904 178.293 365.069 178.787 366.083 179.5C367.097 180.213 367.934 181.129 368.535 182.183C369.136 183.237 369.486 184.404 369.562 185.601L399.073 193.488L387.031 203.404L360.853 194.394C358.73 194.381 356.686 193.628 355.107 192.278C353.529 190.928 352.526 189.075 352.289 187.068C352.052 185.062 352.597 183.043 353.821 181.394C355.045 179.744 356.863 178.579 358.93 178.119L358.93 178.119Z" fill="#FFB7B7"/>
<path d="M434.765 417.026L426.163 417.026L422.07 385.48L434.767 385.481L434.765 417.026Z" fill="#FFB7B7"/>
<path d="M436.963 424.954L409.227 424.953V424.62C409.227 421.897 410.364 419.287 412.389 417.362C414.413 415.437 417.159 414.356 420.022 414.355H420.023L436.964 414.356L436.963 424.954Z" fill="#2F2E41"/>
<path d="M485.171 417.026L476.569 417.026L472.477 385.48L485.172 385.481L485.171 417.026Z" fill="#FFB7B7"/>
<path d="M487.369 424.954L459.633 424.953V424.62C459.633 421.897 460.77 419.287 462.795 417.362C464.82 415.437 467.565 414.356 470.429 414.355H470.429L487.37 414.356L487.369 424.954Z" fill="#2F2E41"/>
<path d="M427.742 235.971L415.07 319.417L418.227 407.336L437.255 408.777L443.205 329.93L458.351 285.965L467.256 348.637L467.621 407.336L487.27 408.777L494.122 285.369L489.082 231.699L427.742 235.971Z" fill="#2F2E41"/>
<path d="M464.389 124.246C475.46 124.246 484.435 115.713 484.435 105.187C484.435 94.6616 475.46 86.1289 464.389 86.1289C453.318 86.1289 444.344 94.6616 444.344 105.187C444.344 115.713 453.318 124.246 464.389 124.246Z" fill="#FFB7B7"/>
<path d="M452.028 134.613L429.898 240.609C429.898 240.609 467.157 250.776 483.479 241.391C499.801 232.005 492.487 203.03 492.487 203.03L489.498 153.728L483.973 141.261L479.286 130.969L452.028 134.613Z" fill="#CBCBCB"/>
<path d="M445.557 209.852L453.202 132.555L447.088 136.798L425.713 143.399L424.25 197.819L409.297 269.382C409.297 269.382 419.985 289.21 433.231 256.406L445.557 209.852Z" fill="#2F2E41"/>
<path d="M435.998 151.538L425.711 143.398L402.59 191.151L376.789 185.778L375.57 200.265L412.952 214.33L438.426 180.613L435.998 151.538Z" fill="#2F2E41"/>
<path d="M476.016 192.933L478.897 130.023L489.5 137.83L508.435 142.848L505.659 192.933L509.654 270.648L489.802 276.626L484.23 227.587L476.016 192.933Z" fill="#2F2E41"/>
<path d="M477.294 243.574C477.516 242.394 478.008 241.274 478.734 240.294C479.461 239.314 480.404 238.497 481.499 237.901C482.593 237.305 483.811 236.945 485.068 236.845C486.325 236.746 487.589 236.909 488.772 237.324L508.228 214.801L512.939 229.269L493.742 248.439C492.876 250.283 491.33 251.76 489.395 252.592C487.461 253.424 485.272 253.552 483.245 252.952C481.218 252.353 479.492 251.067 478.395 249.338C477.298 247.61 476.907 245.559 477.294 243.574V243.574Z" fill="#FFB7B7"/>
<path d="M495.763 149.831L508.44 142.848L540.34 202.74L509.239 243.801L491.5 230.316L513.04 203.61L493.408 174.925L495.763 149.831Z" fill="#2F2E41"/>
<path d="M483.238 89.952L484.21 88.0923L479.32 85.7825C479.32 85.7825 473.926 77.4377 464.164 79.7828C454.403 82.1278 450.012 83.5313 450.012 83.5313L445.134 85.8646L447.582 88.1803L443.191 89.5839L446.125 90.9698L442.711 92.8353L444.549 102.398C444.549 102.398 447.601 95.1451 453.468 97.9169C459.336 100.689 470.069 96.4841 470.069 96.4841L479.394 113.641C479.394 113.641 481.317 107.627 484.747 109.231C484.747 109.231 493.509 95.9634 483.238 89.952Z" fill="#2F2E41"/>
<path d="M361.479 117.914H361.351L287.838 147.758L187.259 188.592C186.866 188.749 186.444 188.831 186.017 188.833C185.591 188.836 185.168 188.758 184.774 188.604L81.0049 147.673L5.68661 117.963L5.57156 117.914H5.44335C4.25494 117.915 3.11559 118.365 2.27526 119.164C1.43494 119.963 0.962261 121.046 0.960938 122.176V307.258C0.962263 308.387 1.43494 309.471 2.27526 310.27C3.11559 311.069 4.25494 311.518 5.44335 311.519H361.479C362.667 311.518 363.807 311.069 364.647 310.27C365.487 309.471 365.96 308.387 365.961 307.258V122.176C365.96 121.046 365.487 119.963 364.647 119.164C363.807 118.365 362.667 117.915 361.479 117.914Z" fill="white"/>
<path d="M361.799 119.131C361.669 119.131 361.541 119.093 361.434 119.022L184.339 1.76074C183.8 1.40554 183.16 1.21572 182.504 1.21678C181.848 1.21785 181.208 1.40974 180.671 1.76668L4.85133 119.021C4.71225 119.113 4.54025 119.149 4.3731 119.121C4.20596 119.093 4.05733 119.004 3.95988 118.871C3.86242 118.739 3.82409 118.576 3.85332 118.417C3.88255 118.258 3.97694 118.116 4.11576 118.024L179.935 0.769657C180.688 0.270027 181.584 0.00144022 182.502 5.77577e-06C183.42 -0.00142866 184.316 0.264356 185.071 0.76163L362.166 118.022C362.278 118.097 362.362 118.203 362.406 118.325C362.45 118.448 362.451 118.581 362.411 118.705C362.37 118.828 362.288 118.936 362.178 119.013C362.068 119.09 361.936 119.131 361.799 119.131L361.799 119.131Z" fill="#3F3D56"/>
<path d="M14.8984 123.289L182.678 5.06641L351.731 131.701L191.322 222.111L104.235 203.238L14.8984 123.289Z" fill="#E6E6E6"/>
<path d="M111.583 277.953H28.6959C28.187 277.955 27.6827 277.861 27.212 277.677C26.7413 277.493 26.3133 277.222 25.9526 276.881C25.592 276.539 25.3056 276.133 25.11 275.687C24.9143 275.24 24.8133 274.761 24.8125 274.277C24.8118 273.793 24.9114 273.314 25.1056 272.867C25.2998 272.419 25.5849 272.013 25.9445 271.67C26.3042 271.328 26.7313 271.056 27.2014 270.871C27.6716 270.685 28.1755 270.59 28.6845 270.59H111.583C112.092 270.588 112.597 270.682 113.067 270.867C113.538 271.051 113.966 271.321 114.327 271.663C114.687 272.004 114.974 272.41 115.169 272.856C115.365 273.303 115.466 273.782 115.467 274.266C115.467 274.75 115.368 275.229 115.174 275.677C114.979 276.124 114.694 276.53 114.335 276.873C113.975 277.215 113.548 277.487 113.078 277.672C112.608 277.858 112.104 277.953 111.595 277.953H111.583Z" fill="#B95072"/>
<path d="M58.4341 262.121H28.6959C28.187 262.123 27.6827 262.029 27.212 261.845C26.7413 261.661 26.3133 261.39 25.9526 261.049C25.592 260.707 25.3056 260.301 25.11 259.855C24.9144 259.408 24.8133 258.929 24.8125 258.445C24.8118 257.961 24.9114 257.482 25.1056 257.034C25.2998 256.587 25.5849 256.181 25.9445 255.838C26.3042 255.496 26.7313 255.224 27.2014 255.039C27.6716 254.853 28.1755 254.758 28.6845 254.758H58.4341C59.4602 254.758 60.4444 255.145 61.1706 255.834C61.8968 256.523 62.3055 257.459 62.307 258.434C62.3086 259.41 61.9027 260.346 61.1787 261.037C60.4547 261.729 59.4717 262.119 58.4456 262.121H58.4341Z" fill="#B95072"/>
<path d="M185.039 189.138C184.409 189.139 183.785 189.022 183.201 188.796L79.7266 147.975V20.1993C79.728 19.0694 80.2006 17.9862 81.0409 17.1872C81.8813 16.3883 83.0206 15.9388 84.209 15.9375H282.718C283.906 15.9388 285.046 16.3883 285.886 17.1872C286.726 17.9862 287.199 19.0694 287.2 20.1993V148.064L287.006 148.143L186.932 188.776C186.332 189.015 185.689 189.138 185.039 189.138Z" fill="#B95072"/>
<path d="M360.518 117.914H360.39L286.877 147.758L186.298 188.592C185.905 188.749 185.483 188.831 185.056 188.833C184.63 188.835 184.207 188.758 183.813 188.604L80.044 147.673L4.72574 117.963L4.6107 117.914H4.48241C3.294 117.915 2.15465 118.365 1.31433 119.164C0.473998 119.963 0.00132167 121.046 0 122.176V307.258C0.00132167 308.387 0.473998 309.471 1.31433 310.27C2.15465 311.069 3.294 311.518 4.48241 311.519H360.518C361.706 311.518 362.846 311.069 363.686 310.27C364.526 309.471 364.999 308.387 365 307.258V122.176C364.999 121.046 364.526 119.963 363.686 119.164C362.846 118.365 361.706 117.915 360.518 117.914ZM363.72 307.258C363.719 308.065 363.382 308.839 362.782 309.41C362.181 309.98 361.367 310.301 360.518 310.302H4.48241C3.63335 310.301 2.81916 309.98 2.21879 309.41C1.61841 308.839 1.28097 308.065 1.28063 307.258V122.176C1.28179 121.389 1.60295 120.632 2.17698 120.065C2.75101 119.498 3.53346 119.163 4.36077 119.132L80.044 148.988L183.32 189.731C184.438 190.163 185.691 190.157 186.803 189.712L286.877 149.08L360.646 119.132C361.472 119.166 362.252 119.501 362.825 120.068C363.397 120.635 363.718 121.39 363.72 122.176L363.72 307.258Z" fill="#3F3D56"/>
<path d="M168.928 63.6982H98.4889C97.1318 63.6959 95.8311 63.1818 94.8723 62.2686C93.9135 61.3554 93.375 60.1179 93.375 58.8276C93.375 57.5373 93.9135 56.2998 94.8723 55.3866C95.8311 54.4734 97.1318 53.9593 98.4889 53.957H168.928C170.285 53.9593 171.585 54.4734 172.544 55.3866C173.503 56.2998 174.041 57.5373 174.041 58.8276C174.041 60.1179 173.503 61.3554 172.544 62.2686C171.585 63.1818 170.285 63.6959 168.928 63.6982Z" fill="white"/>
<path d="M132.429 42.999H98.49C97.1313 42.999 95.8283 42.4858 94.8676 41.5724C93.9069 40.659 93.3672 39.4201 93.3672 38.1284C93.3672 36.8366 93.9069 35.5978 94.8676 34.6844C95.8283 33.771 97.1313 33.2578 98.49 33.2578H132.429C133.787 33.2578 135.09 33.771 136.051 34.6844C137.012 35.5978 137.551 36.8366 137.551 38.1284C137.551 39.4201 137.012 40.659 136.051 41.5724C135.09 42.4858 133.787 42.999 132.429 42.999Z" fill="white"/>
<path d="M236.147 112.405H128.568C127.209 112.405 125.906 111.892 124.946 110.979C123.985 110.065 123.445 108.826 123.445 107.535C123.445 106.243 123.985 105.004 124.946 104.091C125.906 103.177 127.209 102.664 128.568 102.664H236.147C237.506 102.664 238.809 103.177 239.77 104.091C240.73 105.004 241.27 106.243 241.27 107.535C241.27 108.826 240.73 110.065 239.77 110.979C238.809 111.892 237.506 112.405 236.147 112.405Z" fill="white"/>
<path d="M236.141 134.933H128.561C127.888 134.934 127.221 134.809 126.598 134.564C125.976 134.32 125.41 133.961 124.933 133.509C124.457 133.057 124.079 132.519 123.821 131.928C123.563 131.336 123.43 130.702 123.43 130.062C123.43 129.422 123.563 128.788 123.821 128.196C124.079 127.605 124.457 127.067 124.933 126.615C125.41 126.163 125.976 125.804 126.598 125.56C127.221 125.315 127.888 125.19 128.561 125.191H236.141C236.814 125.19 237.481 125.315 238.104 125.56C238.726 125.804 239.292 126.163 239.769 126.615C240.245 127.067 240.624 127.605 240.882 128.196C241.14 128.788 241.272 129.422 241.272 130.062C241.272 130.702 241.14 131.336 240.882 131.928C240.624 132.519 240.245 133.057 239.769 133.509C239.292 133.961 238.726 134.32 238.104 134.564C237.481 134.809 236.814 134.934 236.141 134.933Z" fill="white"/>
<path d="M549.218 425.724H343.696C343.488 425.724 343.289 425.646 343.143 425.507C342.996 425.367 342.914 425.178 342.914 424.981C342.914 424.784 342.996 424.595 343.143 424.456C343.289 424.317 343.488 424.238 343.696 424.238H549.218C549.425 424.238 549.624 424.317 549.77 424.456C549.917 424.595 549.999 424.784 549.999 424.981C549.999 425.178 549.917 425.367 549.77 425.507C549.624 425.646 549.425 425.724 549.218 425.724Z" fill="#CBCBCB"/>
<path d="M190.536 425.724H114.735C114.527 425.724 114.329 425.646 114.182 425.507C114.035 425.367 113.953 425.178 113.953 424.981C113.953 424.784 114.035 424.595 114.182 424.456C114.329 424.317 114.527 424.238 114.735 424.238H190.536C190.743 424.238 190.942 424.317 191.088 424.456C191.235 424.595 191.317 424.784 191.317 424.981C191.317 425.178 191.235 425.367 191.088 425.507C190.942 425.646 190.743 425.724 190.536 425.724Z" fill="#CBCBCB"/>
<path d="M142.602 402.754C145.497 402.69 148.325 401.92 150.816 400.515C153.306 399.111 155.374 397.121 156.82 394.736C160.464 388.565 159.354 380.951 158.134 373.969L154.532 353.316L148.296 361.858C143.811 368.001 139.241 374.319 137.326 381.572C135.412 388.825 136.695 397.327 142.535 402.335" fill="#E6E6E6"/>
<path d="M152.555 425.748C149.357 420.147 146.104 414.48 144.332 408.295C142.758 402.802 142.403 397.013 144.181 391.523C145.126 388.613 146.598 385.883 148.53 383.454C149.035 382.821 150.038 383.598 149.537 384.229C146.197 388.439 144.349 393.549 144.26 398.822C144.176 404.681 146.046 410.364 148.564 415.651C150.085 418.849 151.843 421.937 153.605 425.021C153.701 425.155 153.74 425.318 153.713 425.478C153.687 425.638 153.597 425.782 153.463 425.882C153.324 425.977 153.15 426.016 152.981 425.991C152.811 425.966 152.659 425.878 152.558 425.747L152.555 425.748Z" fill="#F2F2F2"/>
</g>
<defs>
<clipPath id="clip0_96_169">
<rect width="550" height="426" fill="white"/>
</clipPath>
</defs>
</svg>
