<svg width="666" height="452" viewBox="0 0 666 452" fill="none" xmlns="http://www.w3.org/2000/svg">
<g clip-path="url(#clip0_149_114)">
<path d="M114.008 431.736L124.041 434.503L139.3 396.412L124.49 392.328L114.008 431.736Z" fill="#FFB6B6"/>
<path d="M110.82 442.298L141.677 450.808L141.783 450.41C142.646 447.167 142.208 443.708 140.565 440.794C138.923 437.879 136.211 435.748 133.026 434.869L133.025 434.869L128.547 428.961L116.873 430.415L114.179 429.672L110.82 442.298Z" fill="#2F2E41"/>
<path d="M183.291 440.602L193.687 440.601L198.632 399.773L183.289 399.774L183.291 440.602Z" fill="#FFB6B6"/>
<path d="M182.93 451.647L214.899 451.646V451.234C214.899 447.874 213.588 444.652 211.254 442.276C208.921 439.9 205.756 438.566 202.456 438.565H202.455L196.616 434.055L185.72 438.566L182.93 438.566L182.93 451.647Z" fill="#2F2E41"/>
<path d="M187.736 205.18L201.688 406.371L179.221 408.398L147.877 259.291L151.35 345.563L138.91 413.417L119.893 404.054L120.209 333.402L95.2422 219.228L101.887 205.18H187.736Z" fill="#2F2E41"/>
<path d="M98.4238 230.214L98.2844 230.015C90.8386 219.402 102.037 193.897 103.726 190.2C101.72 189.537 100.002 188.187 98.8646 186.38C97.7269 184.572 97.2397 182.419 97.486 180.287L98.2141 173.985L98.973 167.804L93.536 162.268L93.5207 162.13L90.3917 134.255L85.8424 115.74C84.1282 108.741 84.2743 101.403 86.2656 94.4801C88.257 87.5574 92.0218 81.2988 97.1737 76.347L107.69 74.6469L120.47 62.1094H141.079L148.145 68.9835C161.337 71.3391 163.603 70.57 174.934 84.4146L169.785 127.458L168.501 133.379L168.505 141.411L171.77 145.106C172.947 146.437 173.801 148.029 174.267 149.756C174.732 151.483 174.794 153.296 174.449 155.052L174.02 157.238C177.388 158.708 180.602 184.824 181.369 188.472L182.516 193.921C183.497 195.239 189.974 204.032 189.974 206.436C189.974 206.797 189.713 207.146 189.151 207.533C184.737 210.576 167.14 232.163 156.343 227.764C144.841 223.081 99.122 230.105 98.6614 230.177L98.4238 230.214Z" fill="#3F3D56"/>
<path d="M95.652 180.157C95.652 180.157 100.944 149.703 95.6126 138.25L74.4609 139.788L77.6799 183.235L96.1704 231.474C95.8882 232.96 95.9972 234.496 96.4864 235.925C96.9756 237.355 97.8276 238.627 98.9558 239.613C100.084 240.598 101.448 241.263 102.91 241.538C104.372 241.813 105.88 241.69 107.28 241.181C108.68 240.671 109.922 239.793 110.881 238.637C111.84 237.48 112.482 236.086 112.741 234.595C112.999 233.104 112.866 231.57 112.354 230.149C111.843 228.728 110.971 227.47 109.827 226.503L95.652 180.157Z" fill="#FFB6B6"/>
<path d="M74.4646 122.097L75.7737 107.583C76.2664 102.12 77.815 96.8101 80.3304 91.9589C82.8459 87.1077 86.2785 82.8107 90.4309 79.3151C93.0109 77.1593 96.1317 75.7811 99.4407 75.3364C102.75 74.8917 106.115 75.3981 109.156 76.7984C113.266 78.7249 116.504 82.1685 118.215 86.4329C119.927 90.6973 119.984 95.4643 118.375 99.77C113.487 112.824 115.252 126.63 105.72 128.313L106.755 133.329L97.3825 164.472L70.6875 161.324L74.4646 122.097Z" fill="#3F3D56"/>
<path d="M179.304 221.464C178.369 222.641 177.756 224.049 177.528 225.544C177.299 227.04 177.464 228.571 178.004 229.981C178.545 231.391 179.442 232.631 180.605 233.573C181.769 234.516 183.156 235.129 184.627 235.349C186.098 235.57 187.6 235.39 188.98 234.828C190.361 234.267 191.571 233.343 192.488 232.151C193.404 230.959 193.995 229.542 194.2 228.042C194.404 226.543 194.215 225.015 193.653 223.614L202.501 172.621L197.296 129.375L176.258 132.087C173.234 144.381 184.285 173.189 184.285 173.189L179.304 221.464Z" fill="#FFB6B6"/>
<path d="M205.14 149.741L179.568 158.154L169.723 142.516L169.773 137.39C160.102 137.641 153.836 110.72 146.53 98.8945C144.124 94.9931 143.263 90.3071 144.121 85.784C144.978 81.2608 147.491 77.2379 151.15 74.5288C153.863 72.5489 157.065 71.3809 160.396 71.1568C163.726 70.9328 167.051 71.6616 169.996 73.2609C174.741 75.8603 178.934 79.3891 182.334 83.6444C185.735 87.8997 188.275 92.7975 189.81 98.0561L193.887 112.028L205.14 149.741Z" fill="#3F3D56"/>
<path d="M129.388 56.0535C142.029 56.0535 152.276 45.6199 152.276 32.7494C152.276 19.8789 142.029 9.44531 129.388 9.44531C116.747 9.44531 106.5 19.8789 106.5 32.7494C106.5 45.6199 116.747 56.0535 129.388 56.0535Z" fill="#FFB6B6"/>
<path d="M112.771 49.1694C112.571 48.991 112.383 48.8005 112.187 48.6172C112.18 48.636 112.179 48.6553 112.172 48.674L112.771 49.1694Z" fill="#2F2E41"/>
<path d="M148.143 8.1374C147.006 6.27348 145.431 4.72719 143.56 3.6381C142.281 3.0066 140.937 2.52184 139.553 2.19274L135.931 1.18647C134.075 0.601749 132.166 0.210302 130.232 0.0181437C127.547 -0.11672 124.877 0.502279 122.514 1.80752C120.151 3.11276 118.186 5.05405 116.833 7.41935C115.739 9.39571 114.861 11.8585 112.749 12.5816C111.046 13.1646 109.188 12.3422 107.398 12.5018C106.349 12.6565 105.354 13.0723 104.5 13.7123C103.647 14.3522 102.962 15.1966 102.506 16.1706C101.614 18.1306 101.175 20.2727 101.222 22.4324C101.152 27.3356 102.092 32.1994 103.981 36.7101C105.871 41.2207 108.668 45.278 112.192 48.6203C112.783 47.0348 111.81 45.3231 111.041 43.8065C110.263 42.2719 109.782 40.1324 111.085 39.0272C112.536 37.7973 114.859 38.9899 116.575 38.1879C117.123 37.8669 117.586 37.4126 117.92 36.8655C118.254 36.3184 118.45 35.6954 118.49 35.0524C118.656 33.7781 118.483 32.4828 118.562 31.1999C118.639 29.9355 118.96 28.699 119.507 27.5611C120.054 26.4231 120.815 25.4059 121.748 24.5676C122.681 23.7292 123.767 23.0862 124.944 22.6752C126.121 22.2641 127.366 22.0931 128.607 22.1719C128.636 22.1737 128.665 22.1757 128.693 22.1778C132.597 22.4617 136.386 25.1782 140.144 24.0606C141.907 23.5361 143.412 22.2005 145.236 21.9758C147.256 21.727 149.156 22.8878 150.872 24.0024C151.495 21.3076 151.574 18.512 151.105 15.785C150.636 13.0579 149.629 10.4562 148.143 8.1374Z" fill="#2F2E41"/>
<path d="M267.742 438.553L261.917 429.023L260.754 434.469C260.55 435.423 260.346 436.392 260.157 437.353C258.503 435.915 256.743 434.584 255.02 433.307C249.733 429.4 244.447 425.488 239.164 421.57L240.818 431.338C241.838 437.353 242.904 443.491 245.427 448.99C245.706 449.613 246.008 450.229 246.333 450.829H270.914C271.112 450.271 271.249 449.694 271.322 449.106C271.328 449.068 271.331 449.029 271.33 448.99C271.715 445.26 269.691 441.745 267.742 438.553Z" fill="#F0F0F0"/>
<path d="M296.348 451.761L58.1215 451.998C57.8837 451.996 57.6561 451.899 57.4884 451.728C57.3207 451.556 57.2266 451.324 57.2266 451.082C57.2266 450.84 57.3207 450.608 57.4884 450.436C57.6561 450.264 57.8837 450.167 58.1215 450.166L296.348 449.93C296.586 449.931 296.814 450.028 296.981 450.2C297.149 450.371 297.243 450.603 297.243 450.845C297.243 451.088 297.149 451.32 296.981 451.491C296.814 451.663 296.586 451.76 296.348 451.761Z" fill="#CACACA"/>
<path d="M542.589 148.748C542.537 175.672 532.595 201.603 514.718 221.442C496.84 241.281 472.32 253.594 445.979 255.959C419.637 258.325 393.379 250.572 372.367 234.224C351.355 217.877 337.109 194.119 332.43 167.619C327.75 141.119 332.976 113.796 347.079 91.0207C361.183 68.2452 383.144 51.6652 408.645 44.5401C434.146 37.415 461.343 40.2602 484.888 52.5166C508.433 64.7729 526.624 85.5536 535.883 110.773C536.114 111.407 536.34 112.04 536.559 112.679V112.685C537.536 115.496 538.397 118.359 539.142 121.274C541.438 130.245 542.597 139.478 542.589 148.748Z" fill="#3F3D56"/>
<path d="M424.295 75.5021C419.503 72.8637 414.182 71.3744 408.739 71.1476C403.296 70.9209 397.874 71.9628 392.887 74.1938C388.495 76.1397 383.871 79.6304 382.406 85.9339C388.331 82.3737 396.001 87.9988 397.526 97.0227L397.17 97.1226C396.364 103.373 398.162 110.178 401.642 114.053C401.901 112.305 402.539 110.637 403.51 109.17C404.481 107.704 405.761 106.476 407.256 105.576C409.813 103.865 412.642 102.622 414.594 99.6799C416.908 96.1922 417.495 91.0952 418.414 86.4453C419.333 81.7955 421.077 76.7978 424.295 75.5021Z" fill="#CC6200"/>
<path d="M391.125 128.689C389.484 131.198 387.293 132.773 385.326 134.733C383.055 136.836 381.566 139.671 381.108 142.761C380.859 144.944 381.244 147.164 381.191 149.371C381.138 151.579 380.415 154.064 378.94 154.613C376.612 155.469 374.835 151.066 372.441 150.759C370.54 150.517 368.828 153.563 369.379 156.205C369.93 158.847 372.518 160.017 374.005 158.292C375.35 160.59 374.402 164.758 372.382 165.463C372.169 166.911 371.956 168.352 371.748 169.8C366.642 166.163 361.482 162.466 357.14 157.14C352.311 151.267 349.315 144.058 348.539 136.44C347.976 130.318 348.811 123.315 346.051 118.605C343.841 114.835 340.05 114.003 336.638 114.238C336.016 114.28 335.388 114.352 334.766 114.431C336.778 108.277 339.334 102.322 342.401 96.6379C343.096 96.3344 343.741 95.9256 344.315 95.4254C347.49 92.6812 348.9 87.1261 351.477 83.284C351.643 83.0367 351.814 82.7954 351.992 82.5602C354.628 79.0559 358.159 77.2525 361.571 75.5757C369.124 71.8422 376.896 68.0605 384.869 68.5792L382.601 68.8023C379.953 76.3538 377.303 83.9053 374.651 91.4567C374.248 92.6147 373.841 93.7748 373.43 94.9369C371.926 99.2313 370.374 103.803 370.605 108.61C370.741 111.457 371.713 114.497 373.561 115.474C375.285 116.379 377.168 115.269 378.833 114.171C379.538 113.713 380.237 113.255 380.942 112.79C383.471 111.131 386.273 109.431 388.945 110.54C391.392 111.554 393.198 114.937 393.542 118.586C393.857 122.134 393.007 125.687 391.125 128.689Z" fill="#CC6200"/>
<path d="M406.175 180.246C398.788 175.615 391.4 170.984 384.012 166.352L384.138 166.023C379.544 167.805 377.637 176.118 378.396 182.916C379.156 189.715 381.729 195.792 383.03 202.416C384.783 211.481 384.121 220.859 381.113 229.576C390.828 218.478 399.425 206.416 406.775 193.571C407.802 191.953 408.585 190.186 409.097 188.331C409.639 186.354 409.446 184.242 408.554 182.401C407.949 181.493 407.132 180.752 406.175 180.246Z" fill="#CC6200"/>
<path d="M377.014 95.9834C376.146 97.8799 376.013 100.04 376.639 102.032C377.368 103.637 378.691 104.884 380.318 105.501L384.4 107.561C385.758 108.247 387.222 108.939 388.606 108.375C390.276 107.695 391.434 105.03 391.134 102.555C390.816 99.9223 389.186 98.1112 387.678 96.5689C385.568 94.4105 383.459 92.2521 381.349 90.0938L380.16 91.5765C378.874 92.8537 377.81 94.3438 377.014 95.9834Z" fill="#CC6200"/>
<path d="M520.705 124.132C522.542 124.573 524.378 125.013 526.215 125.453C525.895 131.768 522.82 137.613 518.697 139.73C516.979 140.61 515.066 140.936 513.644 142.583C512.359 144.078 511.707 146.407 511.109 148.632C510.06 152.516 509.012 156.401 507.963 160.285C506.838 164.471 505.392 169.121 502.466 170.629C499.954 171.926 497.081 170.339 495.15 167.68C493.219 165.02 492.04 161.443 490.897 157.957C490.968 161.757 489.232 165.484 486.774 166.805C484.309 168.126 481.312 166.932 479.665 163.982C478.48 161.865 477.988 159.073 476.827 156.925C475.666 154.778 473.232 153.548 471.964 155.562C471.129 156.901 471.235 158.952 470.821 160.653C470.612 161.782 470.063 162.817 469.249 163.614C468.436 164.41 467.399 164.929 466.283 165.098C465.256 165.074 464.245 164.838 463.312 164.403C462.378 163.969 461.54 163.345 460.851 162.571C457.223 158.793 454.861 153.944 454.103 148.717C453.59 146.21 453.654 143.617 454.293 141.141C455.022 138.795 456.781 136.985 458.529 137.432C459.678 134.959 457.409 131.678 455.365 131.967C453.315 132.257 451.71 134.494 450.028 136.213C448.351 137.932 446.006 139.181 444.317 137.474C444.355 138.098 444.148 138.712 443.741 139.181C443.334 139.649 442.761 139.934 442.148 139.973C442.087 139.977 442.026 139.978 441.965 139.977C440.843 139.649 439.8 139.086 438.903 138.324C435.035 135.869 430.124 137.498 427.375 142.142C429.093 134.699 431.611 126.159 436.889 124.41C439.045 123.692 441.397 124.283 443.435 123.04C447.042 120.839 447.771 112.521 444.655 109.09C445.052 112.334 444.975 116.122 443.292 118.342C441.61 120.562 438.079 119.114 438.293 115.833C438.245 116.294 438.055 116.729 437.75 117.073C437.445 117.418 437.04 117.656 436.594 117.752C436.148 117.848 435.684 117.799 435.268 117.61C434.851 117.421 434.504 117.103 434.276 116.701C433.157 114.964 433.252 112.123 434.045 110.049C434.864 108.169 436.037 106.473 437.499 105.055C440.313 101.985 443.168 98.8783 446.426 96.9482C449.69 95.0181 453.458 94.3668 456.728 96.2848C458.452 97.298 459.968 98.9869 461.728 99.8795C462.141 100.141 462.601 100.316 463.081 100.397C463.561 100.477 464.052 100.46 464.526 100.347C465 100.234 465.447 100.027 465.842 99.7383C466.237 99.4494 466.573 99.084 466.829 98.663C466.849 98.6305 466.868 98.5977 466.887 98.5646C468.196 96.2244 467.58 92.7502 468.066 89.825C468.937 84.656 474.014 82.2374 476.827 85.6512C474.725 85.1024 472.55 87.6356 472.29 90.7057C472.023 93.7757 473.546 96.8759 475.583 97.8047C479.007 99.3487 482.36 95.4644 484.949 91.8697C487.65 88.106 490.356 84.3444 493.065 80.5848C493.497 79.9446 493.983 79.3433 494.516 78.7874C495.365 77.9453 496.496 77.4631 497.68 77.4385C498.865 77.4139 500.014 77.8486 500.896 78.6547C503.633 80.9286 504.918 85.591 507.164 88.7997C510.422 93.462 515.297 94.596 519.835 95.5007C523.217 96.1702 526.602 96.8437 529.988 97.5212C532.246 101.797 534.215 106.225 535.882 110.773C529.672 113.656 524.405 118.292 520.705 124.132Z" fill="#CC6200"/>
<path d="M539.144 121.276C538.45 123.359 538.071 125.537 538.018 127.736C535.116 124.129 534.654 117.368 536.561 112.688C537.539 115.498 538.4 118.361 539.144 121.276Z" fill="#CC6200"/>
<path d="M531.643 196.71C529.105 201.956 526.153 206.985 522.816 211.746C520.684 210.817 518.391 212.476 516.395 214.032C514.309 215.66 511.804 217.247 509.665 215.763C507.479 214.243 506.774 209.991 507.467 206.619C508.264 203.509 509.657 200.59 511.567 198.03C513.344 195.328 515.245 192.523 517.716 191.474C520.192 190.425 523.373 191.908 524.096 195.491L525.849 195.431C524.866 194.056 525.381 191.209 526.702 190.708C528.225 190.123 529.546 192.252 530.446 194.134C530.849 194.984 531.258 195.841 531.643 196.71Z" fill="#CC6200"/>
<path d="M464.487 171.232C460.718 171.473 457.732 166.749 455.749 162.102C453.765 157.454 451.955 152.139 448.554 149.774C446.611 148.422 444.395 148.237 442.288 147.582C441.092 147.274 439.986 146.681 439.061 145.852C438.135 145.022 437.417 143.98 436.966 142.811L434.576 141.828C431.231 143.53 428.169 145.754 425.498 148.418C422.447 151.718 420.546 155.949 420.089 160.458C419.633 165.33 421.319 170.763 424.47 172.594C426.96 174.04 429.859 173.128 432.381 174.452C435.533 176.106 437.403 180.912 438.112 185.657C438.82 190.401 438.64 195.332 439.147 200.131C439.654 204.929 441.05 209.922 443.94 212.381C447.556 215.458 452.863 212.901 454.485 207.3C455.281 204.552 455.254 201.452 455.849 198.599C456.897 193.577 459.726 189.85 461.969 185.73C464.213 181.609 465.979 176.013 464.487 171.232Z" fill="#CC6200"/>
<path d="M427.24 121.874C427.592 122.203 427.92 122.558 428.222 122.934C428.534 123.483 428.694 124.108 428.683 124.743C428.673 125.377 428.492 125.996 428.162 126.534C428.616 126.507 429.059 126.385 429.465 126.176C429.87 125.966 430.228 125.673 430.517 125.315C431.205 124.517 431.81 123.649 432.322 122.725C432.563 122.408 432.736 122.043 432.827 121.654C432.919 121.264 432.929 120.859 432.855 120.466C432.677 119.948 432.256 119.728 431.961 119.339C431.551 118.578 431.272 117.752 431.135 116.896C430.971 116.094 430.591 115.354 430.037 114.759C429.483 114.165 428.777 113.74 427.999 113.531L428.188 113.568C427.866 113.762 427.612 114.054 427.462 114.403C427.311 114.751 427.272 115.139 427.349 115.511C427.463 116.264 427.938 116.889 427.891 117.656C427.823 118.76 426.739 119.278 426.672 120.382C426.662 120.936 426.866 121.472 427.24 121.874Z" fill="#CC6200"/>
<path d="M420.789 103.118L420.806 103.114C420.922 103.007 421.029 102.89 421.127 102.766L420.789 103.118Z" fill="#CC6200"/>
<path d="M421.913 108.293C422.366 107.889 422.7 107.366 422.881 106.78C423.061 106.195 423.08 105.571 422.936 104.976C422.662 103.721 421.693 102.877 420.799 103.109C420.54 103.376 420.218 103.572 419.864 103.679C419.51 103.785 419.135 103.798 418.774 103.716C418.222 103.571 417.615 103.198 417.136 103.622C416.862 103.938 416.67 104.32 416.578 104.731C416.4 105.286 416.223 105.84 416.046 106.395C415.961 106.593 415.939 106.813 415.983 107.025C416.017 107.11 416.071 107.184 416.142 107.241C416.212 107.298 416.296 107.336 416.385 107.35C417.449 107.67 418.514 107.989 419.578 108.309C419.944 108.481 420.344 108.569 420.747 108.566C421.151 108.563 421.549 108.47 421.913 108.293Z" fill="#CC6200"/>
<path d="M502.265 179.825C501.773 179.005 501.281 178.185 500.789 177.365C500.306 176.415 499.645 175.57 498.844 174.878C498.671 174.73 498.47 174.619 498.254 174.55C498.038 174.48 497.811 174.455 497.586 174.476C497.36 174.496 497.141 174.561 496.94 174.668C496.74 174.774 496.562 174.92 496.416 175.097L496.391 175.129L496.451 175.597C497.768 177.035 498.666 178.819 499.043 180.747C499.155 181.585 499.116 182.453 499.214 183.295C499.225 183.685 499.311 184.069 499.467 184.426C499.624 184.783 499.847 185.104 500.126 185.372C500.901 185.899 501.81 185.122 502.362 184.174C502.855 183.396 503.076 182.471 502.99 181.548C502.867 180.93 502.62 180.343 502.265 179.825Z" fill="#CC6200"/>
<path d="M509.987 180.899C510.081 180.131 510.019 179.352 509.807 178.609C509.771 177.604 510.033 176.611 510.558 175.759C511.079 174.955 511.474 174.074 511.729 173.146C511.836 172.723 511.816 172.278 511.672 171.866C511.51 171.494 511.115 171.324 510.889 171.619L511.373 171.936C510.719 171.818 510.047 171.851 509.408 172.033C509.043 172.176 508.717 172.405 508.458 172.703C508.199 173 508.014 173.357 507.919 173.743C507.839 174.344 507.708 174.937 507.528 175.516C507.239 176.121 506.68 176.322 506.329 176.852C506.089 177.323 505.968 177.846 505.977 178.376C505.986 178.906 506.123 179.425 506.378 179.887C506.819 180.643 507.521 181.204 508.346 181.463C508.938 181.679 509.716 181.69 509.987 180.899Z" fill="#CC6200"/>
<path d="M523.735 185.12C523.948 185.686 524.235 186.221 524.586 186.711C525.244 187.386 526.139 186.972 526.937 186.808C527.661 186.691 528.403 186.776 529.084 187.054C529.764 187.332 530.359 187.793 530.803 188.386C530.493 186.814 529.818 185.341 528.833 184.09C527.848 182.839 526.583 181.847 525.143 181.197C523.273 180.538 521.301 180.224 519.322 180.27L518.984 180.358C519.846 182.911 522.551 182.854 523.735 185.12Z" fill="#CC6200"/>
<path d="M465.516 190.337L465.52 190.348L465.618 190.156L465.516 190.337Z" fill="#CC6200"/>
<path d="M463.432 194.45C462.978 195.29 462.587 196.165 462.263 197.066C461.834 198.526 461.55 200.026 461.415 201.543C461.309 202.406 461.276 203.508 461.807 203.928C461.96 204.031 462.144 204.074 462.325 204.049C462.506 204.024 462.673 203.933 462.792 203.792C463.087 203.474 463.329 203.109 463.507 202.711C464.55 200.881 465.36 198.924 465.918 196.885C466.499 194.723 466.36 192.425 465.523 190.352C464.826 191.718 464.129 193.084 463.432 194.45Z" fill="#CC6200"/>
<path d="M443.319 84.9675C443.65 85.2972 444.069 85.5209 444.523 85.6112C444.978 85.7016 445.448 85.6545 445.877 85.4759C446.765 85.0808 447.579 84.5332 448.284 83.857C448.868 83.417 449.364 82.8667 449.743 82.2362C449.953 81.8593 450.087 81.4442 450.138 81.0144C450.189 80.5847 450.157 80.1489 450.042 79.7321C449.879 79.3327 449.618 78.9823 449.285 78.7139C448.952 78.4456 448.557 78.2682 448.138 78.1985C446.957 77.8418 445.775 77.4851 444.594 77.1284L445.448 76.3442C444.569 75.8637 443.596 76.7554 443.047 77.8594C442.694 78.5802 442.449 79.3502 442.318 80.1444C442.131 80.9741 442.123 81.8353 442.296 82.6682C442.469 83.5011 442.818 84.2857 443.319 84.9675Z" fill="#CC6200"/>
<path d="M464.17 77.8358C464.503 78.2095 464.963 78.4403 465.457 78.4812C465.951 78.5221 466.442 78.3701 466.83 78.0561C467.164 77.8008 467.441 77.4767 467.644 77.1049C467.847 76.7332 467.97 76.3221 468.007 75.8985C468.09 74.9524 467.631 73.9008 466.975 73.819L467.125 72.9331C465.861 72.7007 464.305 72.6541 463.627 74.2172C463.399 74.816 463.329 75.4653 463.424 76.1003C463.519 76.7353 463.777 77.3337 464.17 77.8358Z" fill="#CC6200"/>
<g opacity="0.35">
<path d="M664.171 154.094C671.147 150.997 656.999 149.194 640.947 148.601C624.895 148.009 605.476 148.041 595.218 146.355C585.297 144.725 586.028 141.825 585.194 139.198C584.359 136.571 580.545 133.877 565.064 133.293C545.773 132.566 513.961 135.367 499.398 133.685C485.808 132.116 493.886 127.193 474.07 127.005C462.755 126.897 448.177 128.52 435.586 128.912C426.661 129.306 417.72 128.831 408.883 127.494C402.746 126.471 398.472 125.173 391.565 124.269C373.432 121.894 337.954 122.692 306.289 125.735C274.624 128.778 247.481 133.764 232.173 138.703C216.866 143.642 212.637 148.504 216.202 152.628C218.479 155.261 224.306 157.723 238.44 158.781C264.876 160.76 311.944 157.353 339.261 159.154C354.486 160.157 361.241 162.645 374.599 164.007C388.951 165.469 409.96 165.547 430.602 165.512C473.581 165.44 517.659 164.99 562.605 164.166C581.378 163.821 601.049 163.374 621.025 161.732C641.001 160.091 661.376 156.925 665.591 153.956" fill="white"/>
</g>
<path d="M542.882 290.896C533.128 290.896 522.437 290.521 510.809 289.77C450.668 285.882 372.766 272.363 291.454 251.704C210.143 231.045 135.135 205.713 80.2503 180.377C53.5141 168.035 32.9943 156.352 19.2614 145.653C4.72181 134.325 -1.63801 124.452 0.357855 116.307C4.24671 100.441 38.681 96.9695 66.883 96.8516L66.8926 99.159C28.1637 99.3209 5.31568 105.61 2.557 116.866C-0.957091 131.203 27.7023 153.586 81.1861 178.276C135.951 203.556 210.82 228.839 292.003 249.465C373.186 270.091 450.944 283.587 510.953 287.468C569.557 291.258 605.186 285.208 608.7 270.871C611.617 258.967 592.385 241.431 554.545 221.493L555.586 219.444C583.081 233.932 614.997 254.71 610.899 271.43C608.903 279.574 598.733 285.247 580.671 288.292C570.375 290.027 557.729 290.896 542.882 290.896Z" fill="#CC6200"/>
<path d="M170.722 293.899C143.83 293.899 118.829 292.96 96.4473 291.064C67.1926 288.585 44.0103 284.601 27.5453 279.222C10.1128 273.526 0.864467 266.402 0.0570389 258.048C-1.5165 241.775 29.7707 226.725 56.2944 216.966L57.0645 219.137C20.6407 232.538 1.1961 246.277 2.31224 257.823C3.73381 272.529 38.1131 283.806 96.6351 288.764C156.559 293.841 235.418 292.042 318.688 283.695C401.958 275.351 479.649 261.462 537.451 244.588C593.9 228.108 625.46 210.222 624.039 195.517C622.858 183.308 598.957 173.371 556.737 167.536L557.042 165.25C587.719 169.489 624.636 178.142 626.294 195.291C627.102 203.645 619.395 212.468 603.388 221.514C588.268 230.059 566.294 238.568 538.075 246.806C480.146 263.718 402.312 277.634 318.91 285.992C266.59 291.235 215.988 293.899 170.722 293.899Z" fill="#CC6200"/>
<path d="M330.762 342.636C338.056 342.636 343.969 336.616 343.969 329.189C343.969 321.763 338.056 315.742 330.762 315.742C323.468 315.742 317.555 321.763 317.555 329.189C317.555 336.616 323.468 342.636 330.762 342.636Z" fill="#CC6200"/>
<path d="M70.6914 263.246C77.9854 263.246 83.8984 257.225 83.8984 249.799C83.8984 242.372 77.9854 236.352 70.6914 236.352C63.3974 236.352 57.4844 242.372 57.4844 249.799C57.4844 257.225 63.3974 263.246 70.6914 263.246Z" fill="#E6E6E6"/>
<path d="M313.178 57.1274C317.644 57.1274 321.263 53.4419 321.263 48.8957C321.263 44.3495 317.644 40.6641 313.178 40.6641C308.713 40.6641 305.094 44.3495 305.094 48.8957C305.094 53.4419 308.713 57.1274 313.178 57.1274Z" fill="#FF6584"/>
<path d="M264.262 119.269C271.556 119.269 277.469 113.249 277.469 105.822C277.469 98.3954 271.556 92.375 264.262 92.375C256.968 92.375 251.055 98.3954 251.055 105.822C251.055 113.249 256.968 119.269 264.262 119.269Z" fill="#E6E6E6"/>
</g>
<defs>
<clipPath id="clip0_149_114">
<rect width="666" height="452" fill="white"/>
</clipPath>
</defs>
</svg>
